<svg width="800" height="800" viewBox="0 0 32 32" xmlns="http://www.w3.org/2000/svg"><path d="M0 8.063v15.875a1.4 1.4 0 0 0 1.406 1.406h19.625c.781 0 1.375-.625 1.375-1.406V8.063c0-.781-.594-1.406-1.375-1.406H1.406A1.4 1.4 0 0 0 0 8.063zm1.875 5.406V9.438h5.594v4.031H1.875zm6.531 0V9.438h5.625v4.031H8.406zm6.532 0V9.438h5.594v4.031h-5.594zm-13.063 5v-4.031h5.594v4.031H1.875zm6.531 0v-4.031h5.625v4.031H8.406zm6.532 0v-4.031h5.594v4.031h-5.594zM1.875 23.438v-4.063h5.594v4.063H1.875zm6.531 0v-4.063h5.625v4.063H8.406zm6.532 0v-4.063h5.594v4.063h-5.594z"/></svg>