<svg xmlns="http://www.w3.org/2000/svg" viewBox="138.68 378.88 218.42 90.13"><defs><clipPath id="clip_0"><path transform="matrix(1 0 0 -1 0 841.89)" d="M0 841.89h595.28V0H0Z"/></clipPath></defs><g clip-path="url('#clip_0')" fill="#fff" id="layer_1"><path transform="matrix(1 0 0 -1 214.715 435.367)" d="m0 0-.178-.643-.222-.959-4.157-18.48-3.589 16.586c-.153.678-.36 1.56-.624 2.381l-.236.681a6.419 6.419 0 0 1-5.945 3.973 6.456 6.456 0 0 1-5.842-3.736c-.182-.473-.346-1-.5-1.619a49.297 49.297 0 0 1-.381-1.684s-3.043-14.297-3.545-16.648l-4.467 18.564-.185.76c-.119.47-.229.844-.344 1.174a5.241 5.241 0 0 1-4.808 3.189 5.346 5.346 0 0 1-3.984-1.814 5.181 5.181 0 0 1-1.263-3.032l-.005-.228c0-.311.011-.615.045-.926.103-1.09.375-1.955.636-2.791l7.002-22.781.153-.483.356-1.046a6.802 6.802 0 0 1 6.194-4.082l.051-.002a6.763 6.763 0 0 1 6.299 4.298c0 .008.32 1.145.32 1.145 0 .008.059.219.059.219s3.978 15.855 4.119 16.423l4.176-16.634.297-1.063a6.835 6.835 0 0 1 6.33-4.388l.056.002a6.822 6.822 0 0 1 6.139 3.964c.143.381.283.791.432 1.268l.121.381L9.516-5.252c.259.84.531 1.709.634 2.791.03.311.045.615.045.926l-.007.228a5.18 5.18 0 0 1-1.262 3.034 5.356 5.356 0 0 1-3.983 1.812A5.251 5.251 0 0 1 0 0"/><path transform="matrix(1 0 0 -1 191.11 384.38)" d="m0 0-.002-39.275a5.49 5.49 0 0 1 5.481-5.481c2.98 0 5.437 2.428 5.478 5.406v15.85c0 4.217 3.408 6.826 6.564 6.826 4.633 0 5.323-3.703 5.323-5.91v-16.691l.002-.09c.047-2.971 2.504-5.389 5.474-5.391a5.488 5.488 0 0 1 5.483 5.481v18.589c0 8.309-4.764 13.27-12.746 13.27-4.039 0-7.516-1.404-10.1-4.043V.098C10.904 3.066 8.445 5.48 5.479 5.48A5.487 5.487 0 0 1 0 0"/><path transform="matrix(1 0 0 -1 173.294 462.906)" d="M0 0c-.284.982-.642 2.203-.642 4.6v16.037C-.642 27.322-6.347 31-16.701 31c-9.717 0-15.706-4.605-15.706-9.02a4.437 4.437 0 0 1 7.243-3.443c.487.363.936.795 1.393 1.24 1.474 1.436 3.146 3.063 7.002 3.063 2.65 0 5.481-.889 5.481-3.381 0-2.18-1.229-2.717-3.643-2.994l-5.823-.654c-6.845-.793-13.839-2.788-13.839-11.538 0-6.447 5.769-10.301 11.347-10.301 5.237 0 9.294 1.584 12.681 4.924.529-3.178 2.628-4.924 6.039-4.924 2.729 0 4.867 1.849 4.867 4.214C.341-1.164.183-.625 0 0m-10.744 7.74c0-3.533-3.208-6.939-8.444-6.939-3.274 0-5.303 1.769-5.303 3.929 0 2.881 2.159 4.125 6.152 4.713l3.471.522c1.113.199 3.077.527 4.124 1.508Z"/><path transform="matrix(1 0 0 -1 156.737 398.363)" d="M0 0v.006Z"/><path transform="matrix(1 0 0 -1 161.143 393.497)" d="M0 0c-.514 0-1.017-.07-1.494-.209a4.436 4.436 0 0 1-3.068-4.219 4.431 4.431 0 0 1 3.06-4.224A5.277 5.277 0 0 1 0-8.863h12.218L-4.703-27.262c-.947-1.019-1.428-2.347-1.428-3.943l.004-.213c.096-1.936 1.592-4.076 4.65-4.213l.299-.006h24.353c.522 0 1.03.073 1.517.215a4.44 4.44 0 0 1 3.046 4.217 4.432 4.432 0 0 1-3.048 4.217l-.005.002a5.35 5.35 0 0 1-1.51.215H9.053c.464.505 16.605 18.201 16.605 18.201 1.07 1.148 1.688 2.49 1.688 3.679l-.016.461c-.051.807-.238 1.53-.557 2.151A4.031 4.031 0 0 1 24.384-.25a5.396 5.396 0 0 1-1.669.25Z"/><path transform="matrix(1 0 0 -1 248.75 399.849)" d="M0 0c3.001-.68 3.761-2.46 3.761-4.141 0-2.601-1.96-4.541-5.921-4.541-4.161 0-6.022 2.08-6.022 3.641 0 .8.58 1.36 1.381 1.36 1.78 0 1.321-2.6 4.641-2.6 1.7 0 2.64.94 2.64 1.9 0 .58-.28 1.22-1.4 1.5l-3.7.941C-7.602-1.18-8.142.46-8.142 2c0 3.201 2.961 4.401 5.742 4.401 2.56 0 5.581-1.44 5.581-3.36 0-.821-.701-1.301-1.5-1.301C.16 1.74.44 3.881-2.62 3.881c-1.521 0-2.36-.7-2.36-1.7C-4.98 1.18-3.78.86-2.74.62Z"/><path transform="matrix(1 0 0 -1 259.47 397.468)" d="M0 0c2.44 0 4.261-1.38 4.261-2.74 0-.841-.62-1.261-1.361-1.261-1.379 0-.879 1.721-2.98 1.721-1.14 0-2.481-.781-2.481-3.421 0-1.82.861-3.001 2.461-3.001 2.04 0 1.601 1.881 3.141 1.881.74 0 1.22-.54 1.22-1.12 0-1.281-1.44-3.041-4.441-3.041-3.6 0-5.3 2.22-5.3 5.281C-5.48-2.34-3.58 0 0 0"/><path transform="matrix(1 0 0 -1 265.288 394.988)" d="M0 0c0 .96.58 1.46 1.46 1.46.881 0 1.461-.5 1.461-1.46v-4.021h.04c.58.76 1.601 1.541 3.261 1.541 1.759 0 3.68-.88 3.68-3.841v-5.681c0-.781-.32-1.461-1.461-1.461-1.139 0-1.46.68-1.46 1.461v5.101c0 1.18-.58 2.02-1.839 2.02a2.268 2.268 0 0 1-2.221-2.3v-4.821c0-.781-.32-1.461-1.461-1.461-1.14 0-1.46.68-1.46 1.461Z"/><path transform="matrix(1 0 0 -1 282.469 406.29)" d="M0 0c1.74 0 2.48 1.561 2.48 3.341 0 1.9-.78 3.321-2.48 3.321s-2.48-1.421-2.48-3.321C-2.48 1.561-1.74 0 0 0m0 8.822c3.521 0 5.401-2.401 5.401-5.481C5.401.42 3.981-2.161 0-2.161c-3.98 0-5.401 2.581-5.401 5.502 0 3.08 1.88 5.481 5.401 5.481"/><path transform="matrix(1 0 0 -1 294.709 406.29)" d="M0 0c1.74 0 2.48 1.561 2.48 3.341 0 1.9-.78 3.321-2.48 3.321s-2.48-1.421-2.48-3.321C-2.48 1.561-1.74 0 0 0m0 8.822c3.521 0 5.401-2.401 5.401-5.481C5.401.42 3.981-2.161 0-2.161c-3.98 0-5.401 2.581-5.401 5.502 0 3.08 1.88 5.481 5.401 5.481"/><path transform="matrix(1 0 0 -1 302.148 394.988)" d="M0 0c0 .96.58 1.46 1.46 1.46.881 0 1.461-.5 1.461-1.46v-12.002c0-.96-.58-1.461-1.461-1.461-.88 0-1.46.501-1.46 1.461Z"/><path transform="matrix(1 0 0 -1 318.629 406.29)" d="M0 0c1.74 0 2.48 1.561 2.48 3.341 0 1.9-.78 3.321-2.48 3.321s-2.48-1.421-2.48-3.321C-2.48 1.561-1.74 0 0 0m0 8.822c3.521 0 5.401-2.401 5.401-5.481C5.401.42 3.981-2.161 0-2.161c-3.98 0-5.401 2.581-5.401 5.502 0 3.08 1.88 5.481 5.401 5.481"/><path transform="matrix(1 0 0 -1 326.828 399.648)" d="M0 0h-.66c-.819 0-1.16.32-1.16.96 0 .64.341.96 1.16.96H0v1.46c0 1.841 1.521 2.821 3.221 2.821 1.06 0 1.921-.42 1.921-1.4 0-.54-.42-1-.941-1-.22 0-.42.06-.639.06-.421 0-.641-.28-.641-.68V1.92h.9c.861 0 1.321-.26 1.321-.96S4.682 0 3.821 0h-.9v-7.342c0-.96-.58-1.46-1.46-1.46-.881 0-1.461.5-1.461 1.46Z"/><path transform="matrix(1 0 0 -1 241.29 416.207)" d="M0 0c0 1.46.76 1.92 1.92 1.92h7.702c.96 0 1.66-.28 1.66-1.32s-.7-1.32-1.66-1.32H3.28v-3.121h5.562c.86 0 1.54-.24 1.54-1.261 0-1.02-.68-1.26-1.54-1.26H3.28v-3.481h6.502c.96 0 1.66-.279 1.66-1.32 0-1.039-.7-1.32-1.66-1.32H1.92c-1.16 0-1.92.461-1.92 1.92Z"/><path transform="matrix(1 0 0 -1 254.549 419.428)" d="M0 0c0 .88.4 1.46 1.32 1.46S2.641.88 2.641 0v-.38h.04C3.501.7 4.562 1.46 6.222 1.46c1.759 0 3.68-.88 3.68-3.841v-5.681c0-.781-.32-1.46-1.46-1.46s-1.461.679-1.461 1.46v5.101c0 1.18-.58 2.021-1.839 2.021a2.269 2.269 0 0 1-2.221-2.301v-4.821c0-.781-.32-1.46-1.461-1.46-1.14 0-1.46.679-1.46 1.46Z"/><path transform="matrix(1 0 0 -1 271.57 426.25)" d="M0 0c1.301 0 2.301.859 2.301 2.94 0 2.121-.8 3.061-2.16 3.061-1.881 0-2.461-1.38-2.461-3.181C-2.32 1.48-1.66 0 0 0m5.102-1.58c0-3.522-2.161-5.142-5.202-5.142-2.22 0-4.401 1-4.401 2.421 0 .72.561 1.24 1.2 1.24 1.221 0 1.461-1.501 3.102-1.501 1.78 0 2.5.901 2.5 3.201v.6h-.04C1.74-1.521.601-2.16-.56-2.16c-3.081 0-4.681 2-4.681 4.881 0 3.78 2.121 5.56 4.581 5.56 1.421 0 2.541-.66 3.081-1.74h.04v.36c0 .9.46 1.38 1.32 1.38.901 0 1.321-.48 1.321-1.38Z"/><path transform="matrix(1 0 0 -1 279.148 419.428)" d="M0 0c0 .78.32 1.46 1.46 1.46C2.601 1.46 2.921.78 2.921 0v-8.062c0-.781-.32-1.46-1.461-1.46-1.14 0-1.46.679-1.46 1.46Zm1.46 5.481c.841 0 1.52-.68 1.52-1.521a1.52 1.52 0 1 0-3.04 0c0 .841.68 1.521 1.52 1.521"/><path transform="matrix(1 0 0 -1 284.548 419.428)" d="M0 0c0 .88.4 1.46 1.32 1.46S2.641.88 2.641 0v-.38h.04C3.501.7 4.562 1.46 6.222 1.46c1.759 0 3.68-.88 3.68-3.841v-5.681c0-.781-.32-1.46-1.461-1.46-1.139 0-1.46.679-1.46 1.46v5.101c0 1.18-.58 2.021-1.839 2.021a2.269 2.269 0 0 1-2.221-2.301v-4.821c0-.781-.32-1.46-1.461-1.46-1.14 0-1.46.679-1.46 1.46Z"/><path transform="matrix(1 0 0 -1 304.37 422.33)" d="M0 0c-.16 1.341-1.16 2.321-2.46 2.321-1.461 0-2.341-.9-2.661-2.321Zm-5.121-1.68c0-1.541 1-2.66 2.701-2.66 2.2 0 2.2 1.44 3.38 1.44.7 0 1.2-.6 1.2-1.141 0-1.76-2.82-2.58-4.58-2.58-4.081 0-5.622 2.761-5.622 5.301 0 3.401 2.061 5.681 5.521 5.681 3.362 0 5.282-2.38 5.282-4.781 0-1-.3-1.26-1.281-1.26Z"/><path transform="matrix(1 0 0 -1 316.61 422.33)" d="M0 0c-.16 1.341-1.16 2.321-2.46 2.321-1.461 0-2.341-.9-2.661-2.321Zm-5.121-1.68c0-1.541 1-2.66 2.701-2.66 2.2 0 2.2 1.44 3.38 1.44.7 0 1.2-.6 1.2-1.141 0-1.76-2.82-2.58-4.58-2.58-4.081 0-5.622 2.761-5.622 5.301 0 3.401 2.061 5.681 5.521 5.681 3.362 0 5.282-2.38 5.282-4.781 0-1-.3-1.26-1.281-1.26Z"/><path transform="matrix(1 0 0 -1 321.408 419.329)" d="M0 0c0 .88.58 1.36 1.32 1.36.741 0 1.321-.48 1.321-1.36v-1.12h.04c.34 1.22 1 2.48 2.42 2.48.92 0 1.6-.6 1.6-1.42 0-1.08-.72-1.46-1.44-1.46h-.52c-1.18 0-1.82-.82-1.82-3.241v-3.4c0-.781-.32-1.461-1.461-1.461-1.14 0-1.46.68-1.46 1.461Z"/><path transform="matrix(1 0 0 -1 329.548 419.428)" d="M0 0c0 .78.32 1.46 1.46 1.46C2.601 1.46 2.921.78 2.921 0v-8.062c0-.781-.32-1.46-1.461-1.46-1.14 0-1.46.679-1.46 1.46Zm1.46 5.481c.841 0 1.52-.68 1.52-1.521a1.52 1.52 0 1 0-3.04 0c0 .841.68 1.521 1.52 1.521"/><path transform="matrix(1 0 0 -1 334.947 419.428)" d="M0 0c0 .88.4 1.46 1.32 1.46S2.641.88 2.641 0v-.38h.04C3.501.7 4.562 1.46 6.222 1.46c1.759 0 3.68-.88 3.68-3.841v-5.681c0-.781-.32-1.46-1.46-1.46s-1.461.679-1.461 1.46v5.101c0 1.18-.58 2.021-1.839 2.021a2.269 2.269 0 0 1-2.221-2.301v-4.821c0-.781-.32-1.46-1.461-1.46-1.14 0-1.46.679-1.46 1.46Z"/><path transform="matrix(1 0 0 -1 351.968 426.25)" d="M0 0c1.301 0 2.301.859 2.301 2.94 0 2.121-.8 3.061-2.16 3.061-1.881 0-2.461-1.38-2.461-3.181C-2.32 1.48-1.66 0 0 0m5.102-1.58c0-3.522-2.161-5.142-5.202-5.142-2.22 0-4.401 1-4.401 2.421 0 .72.561 1.24 1.2 1.24 1.221 0 1.461-1.501 3.102-1.501 1.78 0 2.5.901 2.5 3.201v.6h-.04C1.74-1.521.601-2.16-.56-2.16c-3.081 0-4.681 2-4.681 4.881 0 3.78 2.121 5.56 4.581 5.56 1.421 0 2.541-.66 3.081-1.74h.04v.36c0 .9.46 1.38 1.32 1.38.901 0 1.321-.48 1.321-1.38Z"/></g></svg>