<svg xmlns="http://www.w3.org/2000/svg" version="1.1" width="412.344" height="430.919" id="svg2" xml:space="preserve"><g transform="matrix(1.25 0 0 -1.25 -1657.879 844.173)" id="g10"><path d="M1616.556 459.515c0-.007-.671-2.44-.671-2.44l-.847-3.654s-13.673-60.792-15.834-70.381c-.542 2.516-13.669 63.157-13.669 63.157-.578 2.588-1.37 5.947-2.368 9.069l-.901 2.594c-3.815 9.195-12.697 15.13-22.645 15.13-9.513 0-18.241-5.58-22.243-14.225-.689-1.802-1.313-3.808-1.902-6.17-.556-2.192-1.03-4.431-1.446-6.409l-13.508-63.397c-.585 2.447-17.006 70.69-17.006 70.69l-.707 2.903c-.452 1.787-.869 3.205-1.31 4.468a19.964 19.964 0 0 1-18.306 12.144c-5.778-.022-11.308-2.54-15.173-6.908a19.753 19.753 0 0 1-4.805-11.545l-.036-.872c0-1.18.05-2.34.168-3.528.399-4.145 1.432-7.443 2.43-10.63l26.664-86.745.578-1.838 1.356-3.98c4.098-9.395 13.354-15.492 23.589-15.542l.193-.003c10.652.029 20.068 6.452 23.984 16.364 0 .022 1.23 4.357 1.23 4.357 0 .025.212.825.212.825s15.152 60.373 15.694 62.548c.552-2.215 15.897-63.355 15.897-63.355l1.13-4.037c3.783-9.966 13.47-16.67 24.106-16.702l.215.003c10.016.054 19.19 5.975 23.373 15.087a90.534 90.534 0 0 1 1.651 4.83l.456 1.454 26.671 86.734c.998 3.205 2.031 6.514 2.426 10.63.111 1.188.169 2.347.169 3.528l-.036.872c-.32 4.303-1.988 8.293-4.809 11.555-3.88 4.364-9.402 6.876-15.166 6.898-8.498-.025-16.06-5.448-18.826-13.48" id="path166" style="fill:#1266ac;fill-opacity:1;fill-rule:nonzero;stroke:none"/><path d="M1526.666 653.673V504.111c0-11.509 9.363-20.864 20.869-20.864 11.35 0 20.706 9.23 20.86 20.577v60.358c0 16.06 12.977 25.997 24.996 25.997 17.635 0 20.265-14.104 20.265-22.508v-63.908c.183-11.308 9.532-20.513 20.843-20.516 11.516 0 20.88 9.363 20.88 20.864v70.79c0 31.642-18.142 50.53-48.534 50.53-15.381 0-28.62-5.348-38.46-15.396V654.043c-.205 11.3-9.56 20.495-20.858 20.495-11.505 0-20.864-9.36-20.864-20.865" id="path170" style="fill:#1266ac;fill-opacity:1;fill-rule:nonzero;stroke:none"/><path d="M1417.918 384.124c0-13.461-12.215-26.424-32.158-26.424-12.463 0-20.19 6.733-20.19 14.961 0 10.967 8.222 15.705 23.43 17.94l13.21 2c4.239.75 11.718 1.998 15.708 5.737v-14.214zm40.911-29.474c-1.083 3.736-2.447 8.387-2.447 17.513v61.072c0 25.45-21.715 39.465-61.151 39.465-37 0-59.806-17.538-59.806-34.362 0-9.334 7.565-16.903 16.903-16.903 4.052 0 7.77 1.429 10.68 3.804 1.855 1.378 3.564 3.022 5.3 4.716 5.617 5.469 11.987 11.667 26.672 11.667 10.087 0 20.864-3.385 20.864-12.88 0-8.294-4.676-10.346-13.867-11.39l-22.178-2.498c-26.064-3.018-52.696-10.616-52.696-43.937 0-24.55 21.966-39.22 43.204-39.22 19.95 0 35.396 6.036 48.286 18.747 2.02-12.105 10.016-18.747 23.003-18.747 10.39 0 18.533 7.044 18.533 16.037 0 2.477-.603 4.533-1.3 6.916" id="path174" style="fill:#1266ac;fill-opacity:1;fill-rule:nonzero;stroke:none"/><path d="M1412.56 618.95c-1.959 0-3.872-.266-5.691-.794a16.885 16.885 0 0 1-11.681-16.066c0-7.35 4.683-13.81 11.652-16.088a20.324 20.324 0 0 1 5.72-.804h46.517c-1.776-1.935-64.428-70.059-64.428-70.059-3.614-3.883-5.44-8.935-5.44-15.018l.036-.804c.362-7.378 6.058-15.536 17.703-16.045l1.141-.025h92.728c1.992 0 3.933.276 5.781.822a16.888 16.888 0 0 1 11.596 16.052c0 7.317-4.662 13.77-11.603 16.056l-.036.007a20.189 20.189 0 0 1-5.752.814h-53.773c1.762 1.93 63.225 69.316 63.225 69.316 4.084 4.374 6.431 9.484 6.431 14.013l-.06 1.759c-.195 3.068-.905 5.82-2.118 8.182-1.916 3.743-5.064 6.417-9.101 7.73-1.945.632-4.077.951-6.352.951h-86.494" id="path182" style="fill:#1266ac;fill-opacity:1;fill-rule:nonzero;stroke:none"/></g></svg>