<svg xmlns="http://www.w3.org/2000/svg" xmlns:xlink="http://www.w3.org/1999/xlink" version="1.1" viewBox="138.68 378.88 218.42 90.13">
<defs>
<clipPath id="clip_0">
<path transform="matrix(1,0,0,-1,0,841.89)" d="M0 841.89H595.28V0H0Z"/>
</clipPath>
</defs>
<g id="layer_1" data-name="">
<g clip-path="url(#clip_0)">
<path transform="matrix(1,0,0,-1,214.7148,435.3666)" d="M0 0C0-.002-.178-.643-.178-.643L-.4-1.602C-.4-1.602-3.99-17.564-4.557-20.082-4.699-19.422-8.146-3.496-8.146-3.496-8.299-2.818-8.506-1.936-8.77-1.115L-9.006-.434C-10.008 1.98-12.34 3.539-14.951 3.539-17.451 3.539-19.744 2.072-20.793-.197-20.975-.67-21.139-1.197-21.293-1.816-21.437-2.393-21.564-2.982-21.674-3.5-21.674-3.5-24.717-17.797-25.219-20.148-25.373-19.504-29.686-1.584-29.686-1.584L-29.871-.824C-29.99-.354-30.1 .02-30.215 .35-31.041 2.283-32.928 3.533-35.023 3.539-36.541 3.535-37.992 2.873-39.007 1.725-39.749 .869-40.186-.178-40.27-1.307-40.27-1.309-40.275-1.535-40.275-1.535-40.275-1.846-40.264-2.15-40.23-2.461-40.127-3.551-39.855-4.416-39.594-5.252L-32.592-28.033-32.439-28.516-32.083-29.562C-31.006-32.028-28.577-33.63-25.889-33.644L-25.838-33.646C-23.041-33.638-20.568-31.95-19.539-29.348-19.539-29.34-19.219-28.203-19.219-28.203-19.219-28.195-19.16-27.984-19.16-27.984-19.16-27.984-15.182-12.129-15.041-11.561-14.895-12.141-10.865-28.195-10.865-28.195L-10.568-29.258C-9.574-31.876-7.031-33.636-4.238-33.646L-4.182-33.644C-1.553-33.63 .859-32.073 1.957-29.68 2.1-29.299 2.24-28.889 2.389-28.412L2.51-28.031 9.516-5.252C9.775-4.412 10.047-3.543 10.15-2.461 10.18-2.15 10.195-1.846 10.195-1.535L10.188-1.307C10.105-.178 9.668 .871 8.926 1.727 7.906 2.875 6.457 3.535 4.943 3.539 2.711 3.533 .727 2.107 0 0" fill="#fff"/>
<path transform="matrix(1,0,0,-1,191.1094,384.38023)" d="M0 0-.002-39.275C0-42.297 2.459-44.756 5.479-44.756 8.459-44.756 10.916-42.328 10.957-39.35V-39.275-23.5C10.957-19.283 14.365-16.674 17.521-16.674 22.154-16.674 22.844-20.377 22.844-22.584V-39.275L22.846-39.365C22.893-42.336 25.35-44.754 28.32-44.756 31.344-44.756 33.803-42.297 33.803-39.275V-20.686C33.803-12.377 29.039-7.416 21.057-7.416 17.018-7.416 13.541-8.82 10.957-11.459V0 .098C10.904 3.066 8.445 5.48 5.479 5.48 2.459 5.48 0 3.021 0 0" fill="#fff"/>
<path transform="matrix(1,0,0,-1,173.2939,462.9056)" d="M0 0C-.284 .982-.642 2.203-.642 4.6V20.637C-.642 27.322-6.347 31-16.701 31-26.418 31-32.407 26.395-32.407 21.98-32.407 19.525-30.421 17.539-27.97 17.539-26.905 17.539-25.929 17.914-25.164 18.537-24.677 18.9-24.228 19.332-23.771 19.777-22.297 21.213-20.625 22.84-16.769 22.84-14.119 22.84-11.288 21.951-11.288 19.459-11.288 17.279-12.517 16.742-14.931 16.465L-20.754 15.811C-27.599 15.018-34.593 13.023-34.593 4.273-34.593-2.174-28.824-6.028-23.246-6.028-18.009-6.028-13.952-4.444-10.565-1.104-10.036-4.282-7.937-6.028-4.526-6.028-1.797-6.028 .341-4.179 .341-1.814 .341-1.164 .183-.625 0 0M-10.744 7.74C-10.744 4.207-13.952 .801-19.188 .801-22.462 .801-24.491 2.57-24.491 4.73-24.491 7.611-22.332 8.855-18.339 9.443L-14.868 9.965C-13.755 10.164-11.791 10.492-10.744 11.473Z" fill="#fff"/>
<path transform="matrix(1,0,0,-1,156.7373,398.3627)" d="M0 0V.006Z" fill="#fff"/>
<path transform="matrix(1,0,0,-1,161.1426,393.4974)" d="M0 0C-.514 0-1.017-.07-1.494-.209-3.328-.809-4.559-2.502-4.562-4.428-4.562-6.357-3.332-8.055-1.502-8.652-1.019-8.795-.515-8.863 0-8.863H12.218C11.75-9.371-4.703-27.262-4.703-27.262-5.65-28.281-6.131-29.609-6.131-31.205L-6.127-31.418C-6.031-33.354-4.535-35.494-1.477-35.631L-1.178-35.637H23.175C23.697-35.637 24.205-35.564 24.692-35.422 26.516-34.814 27.738-33.121 27.738-31.205 27.738-29.285 26.514-27.59 24.69-26.988L24.685-26.986C24.203-26.844 23.693-26.771 23.175-26.771H9.053C9.517-26.266 25.658-8.57 25.658-8.57 26.728-7.422 27.346-6.08 27.346-4.891L27.33-4.43C27.279-3.623 27.092-2.9 26.773-2.279 26.269-1.297 25.443-.594 24.384-.25 23.873-.084 23.312 0 22.715 0Z" fill="#fff"/>
<path transform="matrix(1,0,0,-1,248.75,399.8485)" d="M0 0C3.001-.68 3.761-2.46 3.761-4.141 3.761-6.742 1.801-8.682-2.16-8.682-6.321-8.682-8.182-6.602-8.182-5.041-8.182-4.241-7.602-3.681-6.801-3.681-5.021-3.681-5.48-6.281-2.16-6.281-.46-6.281 .48-5.341 .48-4.381 .48-3.801 .2-3.161-.92-2.881L-4.62-1.94C-7.602-1.18-8.142 .46-8.142 2-8.142 5.201-5.181 6.401-2.4 6.401 .16 6.401 3.181 4.961 3.181 3.041 3.181 2.22 2.48 1.74 1.681 1.74 .16 1.74 .44 3.881-2.62 3.881-4.141 3.881-4.98 3.181-4.98 2.181-4.98 1.18-3.78 .86-2.74 .62Z" fill="#fff"/>
<path transform="matrix(1,0,0,-1,259.4697,397.4681)" d="M0 0C2.44 0 4.261-1.38 4.261-2.74 4.261-3.581 3.641-4.001 2.9-4.001 1.521-4.001 2.021-2.28-.08-2.28-1.22-2.28-2.561-3.061-2.561-5.701-2.561-7.521-1.7-8.702-.1-8.702 1.94-8.702 1.501-6.821 3.041-6.821 3.781-6.821 4.261-7.361 4.261-7.941 4.261-9.222 2.821-10.982-.18-10.982-3.78-10.982-5.48-8.762-5.48-5.701-5.48-2.34-3.58 0 0 0" fill="#fff"/>
<path transform="matrix(1,0,0,-1,265.2881,394.9877)" d="M0 0C0 .96 .58 1.46 1.46 1.46 2.341 1.46 2.921 .96 2.921 0V-4.021H2.961C3.541-3.261 4.562-2.48 6.222-2.48 7.981-2.48 9.902-3.36 9.902-6.321V-12.002C9.902-12.783 9.582-13.463 8.441-13.463 7.302-13.463 6.981-12.783 6.981-12.002V-6.901C6.981-5.721 6.401-4.881 5.142-4.881 4.121-4.881 2.921-5.721 2.921-7.181V-12.002C2.921-12.783 2.601-13.463 1.46-13.463 .32-13.463 0-12.783 0-12.002Z" fill="#fff"/>
<path transform="matrix(1,0,0,-1,282.4687,406.28993)" d="M0 0C1.74 0 2.48 1.561 2.48 3.341 2.48 5.241 1.7 6.662 0 6.662-1.7 6.662-2.48 5.241-2.48 3.341-2.48 1.561-1.74 0 0 0M0 8.822C3.521 8.822 5.401 6.421 5.401 3.341 5.401 .42 3.981-2.161 0-2.161-3.98-2.161-5.401 .42-5.401 3.341-5.401 6.421-3.521 8.822 0 8.822" fill="#fff"/>
<path transform="matrix(1,0,0,-1,294.709,406.28993)" d="M0 0C1.74 0 2.48 1.561 2.48 3.341 2.48 5.241 1.7 6.662 0 6.662-1.7 6.662-2.48 5.241-2.48 3.341-2.48 1.561-1.74 0 0 0M0 8.822C3.521 8.822 5.401 6.421 5.401 3.341 5.401 .42 3.981-2.161 0-2.161-3.98-2.161-5.401 .42-5.401 3.341-5.401 6.421-3.521 8.822 0 8.822" fill="#fff"/>
<path transform="matrix(1,0,0,-1,302.1484,394.9877)" d="M0 0C0 .96 .58 1.46 1.46 1.46 2.341 1.46 2.921 .96 2.921 0V-12.002C2.921-12.962 2.341-13.463 1.46-13.463 .58-13.463 0-12.962 0-12.002Z" fill="#fff"/>
<path transform="matrix(1,0,0,-1,318.6289,406.28993)" d="M0 0C1.74 0 2.48 1.561 2.48 3.341 2.48 5.241 1.7 6.662 0 6.662-1.7 6.662-2.48 5.241-2.48 3.341-2.48 1.561-1.74 0 0 0M0 8.822C3.521 8.822 5.401 6.421 5.401 3.341 5.401 .42 3.981-2.161 0-2.161-3.98-2.161-5.401 .42-5.401 3.341-5.401 6.421-3.521 8.822 0 8.822" fill="#fff"/>
<path transform="matrix(1,0,0,-1,326.8281,399.64833)" d="M0 0H-.66C-1.479 0-1.82 .32-1.82 .96-1.82 1.6-1.479 1.92-.66 1.92H0V3.38C0 5.221 1.521 6.201 3.221 6.201 4.281 6.201 5.142 5.781 5.142 4.801 5.142 4.261 4.722 3.801 4.201 3.801 3.981 3.801 3.781 3.861 3.562 3.861 3.141 3.861 2.921 3.581 2.921 3.181V1.92H3.821C4.682 1.92 5.142 1.66 5.142 .96 5.142 .26 4.682 0 3.821 0H2.921V-7.342C2.921-8.302 2.341-8.802 1.461-8.802 .58-8.802 0-8.302 0-7.342Z" fill="#fff"/>
<path transform="matrix(1,0,0,-1,241.2891,416.20744)" d="M0 0C0 1.46 .76 1.92 1.92 1.92H9.622C10.582 1.92 11.282 1.64 11.282 .6 11.282-.44 10.582-.72 9.622-.72H3.28V-3.841H8.842C9.702-3.841 10.382-4.081 10.382-5.102 10.382-6.122 9.702-6.362 8.842-6.362H3.28V-9.843H9.782C10.742-9.843 11.442-10.122 11.442-11.163 11.442-12.202 10.742-12.483 9.782-12.483H1.92C.76-12.483 0-12.022 0-10.563Z" fill="#fff"/>
<path transform="matrix(1,0,0,-1,254.5488,419.4281)" d="M0 0C0 .88 .4 1.46 1.32 1.46 2.24 1.46 2.641 .88 2.641 0V-.38H2.681C3.501 .7 4.562 1.46 6.222 1.46 7.981 1.46 9.902 .58 9.902-2.381V-8.062C9.902-8.843 9.582-9.522 8.442-9.522 7.302-9.522 6.981-8.843 6.981-8.062V-2.961C6.981-1.781 6.401-.94 5.142-.94 4.121-.94 2.921-1.781 2.921-3.241V-8.062C2.921-8.843 2.601-9.522 1.46-9.522 .32-9.522 0-8.843 0-8.062Z" fill="#fff"/>
<path transform="matrix(1,0,0,-1,271.5693,426.24943)" d="M0 0C1.301 0 2.301 .859 2.301 2.94 2.301 5.061 1.501 6.001 .141 6.001-1.74 6.001-2.32 4.621-2.32 2.82-2.32 1.48-1.66 0 0 0M5.102-1.58C5.102-5.102 2.941-6.722-.1-6.722-2.32-6.722-4.501-5.722-4.501-4.301-4.501-3.581-3.94-3.061-3.301-3.061-2.08-3.061-1.84-4.562-.199-4.562 1.581-4.562 2.301-3.661 2.301-1.361V-.761H2.261C1.74-1.521 .601-2.16-.56-2.16-3.641-2.16-5.241-.16-5.241 2.721-5.241 6.501-3.12 8.281-.66 8.281 .761 8.281 1.881 7.621 2.421 6.541H2.461V6.901C2.461 7.801 2.921 8.281 3.781 8.281 4.682 8.281 5.102 7.801 5.102 6.901Z" fill="#fff"/>
<path transform="matrix(1,0,0,-1,279.1484,419.4281)" d="M0 0C0 .78 .32 1.46 1.46 1.46 2.601 1.46 2.921 .78 2.921 0V-8.062C2.921-8.843 2.601-9.522 1.46-9.522 .32-9.522 0-8.843 0-8.062ZM1.46 5.481C2.301 5.481 2.98 4.801 2.98 3.96 2.98 3.121 2.301 2.44 1.46 2.44 .62 2.44-.06 3.121-.06 3.96-.06 4.801 .62 5.481 1.46 5.481" fill="#fff"/>
<path transform="matrix(1,0,0,-1,284.5479,419.4281)" d="M0 0C0 .88 .4 1.46 1.32 1.46 2.24 1.46 2.641 .88 2.641 0V-.38H2.681C3.501 .7 4.562 1.46 6.222 1.46 7.981 1.46 9.902 .58 9.902-2.381V-8.062C9.902-8.843 9.582-9.522 8.441-9.522 7.302-9.522 6.981-8.843 6.981-8.062V-2.961C6.981-1.781 6.401-.94 5.142-.94 4.121-.94 2.921-1.781 2.921-3.241V-8.062C2.921-8.843 2.601-9.522 1.46-9.522 .32-9.522 0-8.843 0-8.062Z" fill="#fff"/>
<path transform="matrix(1,0,0,-1,304.3691,422.32954)" d="M0 0C-.16 1.341-1.16 2.321-2.46 2.321-3.921 2.321-4.801 1.421-5.121 0ZM-5.121-1.68C-5.121-3.221-4.121-4.34-2.42-4.34-.22-4.34-.22-2.9 .96-2.9 1.66-2.9 2.16-3.5 2.16-4.041 2.16-5.801-.66-6.621-2.42-6.621-6.501-6.621-8.042-3.86-8.042-1.32-8.042 2.081-5.981 4.361-2.521 4.361 .841 4.361 2.761 1.981 2.761-.42 2.761-1.42 2.461-1.68 1.48-1.68Z" fill="#fff"/>
<path transform="matrix(1,0,0,-1,316.6094,422.32954)" d="M0 0C-.16 1.341-1.16 2.321-2.46 2.321-3.921 2.321-4.801 1.421-5.121 0ZM-5.121-1.68C-5.121-3.221-4.121-4.34-2.42-4.34-.22-4.34-.22-2.9 .96-2.9 1.66-2.9 2.16-3.5 2.16-4.041 2.16-5.801-.66-6.621-2.42-6.621-6.501-6.621-8.042-3.86-8.042-1.32-8.042 2.081-5.981 4.361-2.521 4.361 .841 4.361 2.761 1.981 2.761-.42 2.761-1.42 2.461-1.68 1.48-1.68Z" fill="#fff"/>
<path transform="matrix(1,0,0,-1,321.4082,419.32853)" d="M0 0C0 .88 .58 1.36 1.32 1.36 2.061 1.36 2.641 .88 2.641 0V-1.12H2.681C3.021 .1 3.681 1.36 5.101 1.36 6.021 1.36 6.701 .76 6.701-.06 6.701-1.14 5.981-1.52 5.261-1.52H4.741C3.561-1.52 2.921-2.34 2.921-4.761V-8.161C2.921-8.942 2.601-9.622 1.46-9.622 .32-9.622 0-8.942 0-8.161Z" fill="#fff"/>
<path transform="matrix(1,0,0,-1,329.5479,419.4281)" d="M0 0C0 .78 .32 1.46 1.46 1.46 2.601 1.46 2.921 .78 2.921 0V-8.062C2.921-8.843 2.601-9.522 1.46-9.522 .32-9.522 0-8.843 0-8.062ZM1.46 5.481C2.301 5.481 2.98 4.801 2.98 3.96 2.98 3.121 2.301 2.44 1.46 2.44 .62 2.44-.06 3.121-.06 3.96-.06 4.801 .62 5.481 1.46 5.481" fill="#fff"/>
<path transform="matrix(1,0,0,-1,334.9473,419.4281)" d="M0 0C0 .88 .4 1.46 1.32 1.46 2.24 1.46 2.641 .88 2.641 0V-.38H2.681C3.501 .7 4.562 1.46 6.222 1.46 7.981 1.46 9.902 .58 9.902-2.381V-8.062C9.902-8.843 9.582-9.522 8.442-9.522 7.302-9.522 6.981-8.843 6.981-8.062V-2.961C6.981-1.781 6.401-.94 5.142-.94 4.121-.94 2.921-1.781 2.921-3.241V-8.062C2.921-8.843 2.601-9.522 1.46-9.522 .32-9.522 0-8.843 0-8.062Z" fill="#fff"/>
<path transform="matrix(1,0,0,-1,351.9678,426.24943)" d="M0 0C1.301 0 2.301 .859 2.301 2.94 2.301 5.061 1.501 6.001 .141 6.001-1.74 6.001-2.32 4.621-2.32 2.82-2.32 1.48-1.66 0 0 0M5.102-1.58C5.102-5.102 2.941-6.722-.1-6.722-2.32-6.722-4.501-5.722-4.501-4.301-4.501-3.581-3.94-3.061-3.301-3.061-2.08-3.061-1.84-4.562-.199-4.562 1.581-4.562 2.301-3.661 2.301-1.361V-.761H2.261C1.74-1.521 .601-2.16-.56-2.16-3.641-2.16-5.241-.16-5.241 2.721-5.241 6.501-3.12 8.281-.66 8.281 .761 8.281 1.881 7.621 2.421 6.541H2.461V6.901C2.461 7.801 2.921 8.281 3.781 8.281 4.682 8.281 5.102 7.801 5.102 6.901Z" fill="#fff"/>
</g>
</g>
</svg>