<svg xmlns="http://www.w3.org/2000/svg" shape-rendering="geometricPrecision" text-rendering="geometricPrecision" image-rendering="optimizeQuality" fill-rule="evenodd" clip-rule="evenodd" viewBox="0 0 511 512.1"><path fill="#773E15" d="M491.85 139.63c8.02 0 14.52 6.5 14.52 14.52s-6.5 14.53-14.52 14.53-14.52-6.51-14.52-14.53 6.5-14.52 14.52-14.52zm-64.11 64.34c7.32 10.84 14.97 17.75 22.99 19.92 7.68 2.07 17.17-.09 28.77-7.22 9.41-5.78 21.73-2.84 27.51 6.57 1.96 3.18 2.92 6.69 2.96 10.18.51 5.6.83 11.35.96 17.23.14 6.35.07 12.61-.24 18.71-3.54 70.48-35.32 132.85-83.83 176.72-48.52 43.86-113.74 69.23-184.12 65.69-70.47-3.54-132.85-35.33-176.72-83.83C22.15 379.42-3.21 314.21.33 243.82 3.87 173.45 36.49 110.91 85.78 66.8 135.26 22.53 201.56-3.22 272.08.32c11 .52 19.51 9.87 18.99 20.87-.1 2.16-.54 4.21-1.26 6.12-4.21 13.71-4.56 26.18-1.17 35.89 2.79 7.99 8.49 14.18 17 17.34 9.97 3.71 15.21 14.57 12.07 24.61l.05.01c-6.91 22.15-7.09 41.49-2.13 56.87 2.88 8.95 7.55 16.57 13.64 22.59 6.09 6.02 13.73 10.55 22.55 13.3 14.81 4.61 32.96 4.28 53.01-2.19 8.81-2.83 18.15.79 22.91 8.24zm-39.96-102.81c12.07 0 21.86 9.79 21.86 21.86s-9.79 21.87-21.86 21.87c-12.08 0-21.86-9.8-21.86-21.87s9.78-21.86 21.86-21.86zm16.9-90.51c12.93 0 23.41 10.49 23.41 23.42 0 12.94-10.48 23.42-23.41 23.42s-23.42-10.48-23.42-23.42c0-12.93 10.49-23.42 23.42-23.42z"/><path fill="#CC7A3D" d="M410.93 214.72c20.21 30.17 45.81 39.43 79.04 18.99 1.1 11.37 1.38 22.96.79 34.71-6.54 129.93-117.16 229.96-247.08 223.42-129.93-6.53-229.95-117.16-223.42-247.08 6.53-129.92 120.95-231.04 250.88-224.5-11.52 36.03-1.78 68.05 27.54 78.96-26.59 85.33 32.74 141.16 112.25 115.5z"/><path fill="#965323" d="M137.64 197.91c19.46 0 35.24 15.78 35.24 35.24 0 19.47-15.78 35.25-35.24 35.25s-35.24-15.78-35.24-35.25c0-19.46 15.78-35.24 35.24-35.24zm313.76 83.48c7.48 0 13.54 6.06 13.54 13.53s-6.06 13.54-13.54 13.54c-7.47 0-13.53-6.07-13.53-13.54 0-7.47 6.06-13.53 13.53-13.53zm-60.43 13.77c7.48 0 13.53 6.06 13.53 13.53s-6.05 13.53-13.53 13.53c-7.47 0-13.53-6.06-13.53-13.53s6.06-13.53 13.53-13.53zm-60.43-30.84c5.91 0 10.7 4.8 10.7 10.71 0 5.91-4.79 10.71-10.7 10.71-5.92 0-10.71-4.8-10.71-10.71 0-5.91 4.79-10.71 10.71-10.71zM145.86 98.62c7.47 0 13.53 6.06 13.53 13.53s-6.06 13.53-13.53 13.53c-7.48 0-13.54-6.06-13.54-13.53s6.06-13.53 13.54-13.53zm102.71 144.19c11.22 0 20.31 9.09 20.31 20.31 0 11.21-9.09 20.3-20.31 20.3-11.21 0-20.3-9.09-20.3-20.3 0-11.22 9.09-20.31 20.3-20.31zm-88.06 83.61c13.67 0 24.76 11.09 24.76 24.75 0 13.67-11.09 24.76-24.76 24.76-13.67 0-24.74-11.09-24.74-24.76 0-13.66 11.07-24.75 24.74-24.75zm53.37-189.46c10.73 0 19.42 8.7 19.42 19.42 0 10.72-8.69 19.41-19.42 19.41-10.72 0-19.41-8.69-19.41-19.41s8.69-19.42 19.41-19.42zM319.29 335.1c17.96 0 32.53 14.56 32.53 32.53s-14.57 32.53-32.53 32.53c-17.97 0-32.53-14.56-32.53-32.53s14.56-32.53 32.53-32.53z"/></svg>