<?xml version="1.0" encoding="UTF-8"?>
<!DOCTYPE svg PUBLIC "-//W3C//DTD SVG 1.1//EN" "http://www.w3.org/Graphics/SVG/1.1/DTD/svg11.dtd">
<svg xmlns="http://www.w3.org/2000/svg" version="1.1" width="32px" height="32px" style="shape-rendering:geometricPrecision; text-rendering:geometricPrecision; image-rendering:optimizeQuality; fill-rule:evenodd; clip-rule:evenodd" xmlns:xlink="http://www.w3.org/1999/xlink">
<g><path style="opacity:1" fill="#18bc9b" d="M -0.5,-0.5 C 10.1667,-0.5 20.8333,-0.5 31.5,-0.5C 31.5,10.1667 31.5,20.8333 31.5,31.5C 20.8333,31.5 10.1667,31.5 -0.5,31.5C -0.5,20.8333 -0.5,10.1667 -0.5,-0.5 Z"/></g>
<g><path style="opacity:1" fill="#fefffe" d="M 4.5,2.5 C 11.8333,2.5 19.1667,2.5 26.5,2.5C 26.5,6.5 26.5,10.5 26.5,14.5C 19.1667,14.5 11.8333,14.5 4.5,14.5C 4.5,10.5 4.5,6.5 4.5,2.5 Z"/></g>
<g><path style="opacity:1" fill="#fefffe" d="M 4.5,16.5 C 11.8333,16.5 19.1667,16.5 26.5,16.5C 26.5,20.5 26.5,24.5 26.5,28.5C 19.1667,28.5 11.8333,28.5 4.5,28.5C 4.5,24.5 4.5,20.5 4.5,16.5 Z"/></g>
</svg>
